<svg xmlns="http://www.w3.org/2000/svg" width="45" height="45" viewBox="0 0 45 45" fill="none">
<path d="M10.7248 34.4549L35.1579 12.516L39.962 24.661L36.1689 33.414L10.7248 34.4549ZM10.7248 34.4549L35.1579 12.516L24.5436 5.58825L15.7413 8.14482L10.7248 34.4549Z" fill="url(#paint0_linear_2_42)"/>
<path opacity="0.14" d="M10.7248 34.4548L35.1579 12.516L24.5436 5.58825L15.7413 8.14482L10.7248 34.4548Z" fill="#000544"/>
<path opacity="0.34" d="M25.955 20.7795L39.962 24.661L35.1579 12.5161L25.955 20.7795ZM25.955 20.7795L24.5436 5.58826L35.1579 12.5161L25.955 20.7795Z" fill="white"/>
<path opacity="0.14" d="M36.1689 33.414L25.955 20.7795L17.1171 28.7152L36.1689 33.414ZM15.7412 8.14481L25.955 20.7795L17.1171 28.7152L15.7412 8.14481Z" fill="white"/>
<path opacity="0.34" d="M39.962 24.661L15.7413 8.14484L25.955 20.7795L39.962 24.661Z" fill="white"/>
<path opacity="0.34" d="M36.1689 33.414L24.5436 5.58823L25.955 20.7795L36.1689 33.414Z" fill="white"/>
<defs>
<linearGradient id="paint0_linear_2_42" x1="35.1579" y1="12.516" x2="15.8242" y2="28.1456" gradientUnits="userSpaceOnUse">
<stop stop-color="#062159"/>
<stop offset="0.34" stop-color="#198EDF"/>
</linearGradient>
</defs>
</svg>